<?xml version="1.0" encoding="UTF-8"?><svg id="a" xmlns="http://www.w3.org/2000/svg" viewBox="0 0 1000 1000"><path d="M845.843,430.08v350.11c0,22.842-41.188,56.485-64.997,54.72l-555.521.116c-27.818,2.038-69.977-32.54-69.977-59.929v-341.199l3.822-3.819h686.672ZM493.713,481.773c-129.444,7.579-190.135,167.774-93.793,257.709,109.717,102.42,283.259-6.24,243.908-149.535-17.216-62.693-84.733-112.002-150.115-108.174Z"/><path d="M155.349,314.225c1.047-6.27,13.176-27.837,17.844-33.093,19.289-21.72,48.594-27.24,76.444-24.211-12.412,121.472,150.045,121.754,137.563,0l229.329.013v36.921c0,8.324,15.155,30.624,21.685,36.893,26.629,25.564,71.287,23.591,96.764-2.549,4.444-4.56,19.14-29.517,19.14-34.344v-36.921c30.519-3.266,61.804,4.35,80.098,30.717,2.971,4.282,11.628,22.53,11.628,26.574v77.661H155.349c2.769-23.498-3.739-55.259,0-77.661Z"/><path d="M310.08,165.858c23.799-4.811,38.423,8.667,41.179,31.521,1.767,14.658-2.559,25.758-2.486,37.923.121,20.042,8.679,42.641-3.706,62.268-13.636,21.609-53.189,15.498-57.079-8.953-2.534-15.923-2.459-82.951.018-98.996,1.699-11.008,11.071-21.539,22.074-23.763Z"/><path d="M676.998,165.883c16.32-3.007,35.952,2.951,38.759,21.17,3.392,22.015.137,42.723-.078,63.527-.099,9.609,3.496,16.904,2.51,27.691-3.973,43.45-58.501,40.572-63.296,10.346-2.529-15.943-2.537-85.634,0-101.56,1.633-10.249,11.967-19.306,22.105-21.174Z"/><path d="M522.253,613.41h59.877c.81,0,10.087,9.793,11.129,11.775,6.588,12.529.448,25.735-12.82,29.821-11.353,3.496-63.866,3.217-77.293,1.688-13.373-1.522-22.595-7.336-24.266-21.583-1.726-14.716-1.946-83.138,1.75-95.126,7.7-24.977,41.624-14.594,41.624-1.69v75.115Z"/></svg>