<?xml version="1.0" encoding="UTF-8"?><svg id="a" xmlns="http://www.w3.org/2000/svg" viewBox="0 0 1000 1000"><path d="M490.296,208.14c272.045-15.076,410.584,337.09,203.009,513.52-146.297,124.346-377.958,79.766-459.463-95.773-88.551-190.713,49.91-406.3,256.454-417.746ZM625.272,388.677c-11.442,1.563-18.306,10.147-27.173,16.316l-142.027,140.868c-25.058-15.416-46.473-51.073-69.616-67.394-33.825-23.856-77.28,16.178-44.719,54.874,13.648,16.219,35.556,33.365,51.053,48.285,24.982,24.052,49.678,69.001,87.896,39.593l180.466-178.678c15.893-25.346-7.359-57.759-35.881-53.863Z"/></svg>