<?xml version="1.0" encoding="UTF-8"?><svg id="a" xmlns="http://www.w3.org/2000/svg" viewBox="0 0 1000 1000" fill="#fff"><path d="M706.985,620.925c-1.406.43-3.006,3.098-2.985,4.812l70.576,169.12c-5.572,18.123,14.374,129.893-9.667,122.907-51.808-37.638-125.586-235.629-152.97-293.802l-6.441-3.144-218.808,1.842-96.222,220.058-53.919,72.578-6.754,2.829-5.858-3.926s-.506-121.266-.506-121.266l70.615-167.248c-.358-10.747-49.306-.441-55.686-5.765-8.843-3.898-7.878-32.708-1.144-37.474,9.005-6.374,69.743,2.598,74.913-3.678,0,0,90.719-210.441,90.719-210.441-66.421-106.643,44.235-236.424,157.337-169.903,58.103,35.63,71.478,111.198,33.226,166.913l92.464,213.441c7.456,6.656,63.198-3.19,74.585,4.006,8.747,5.528,6.315,38.139-1.719,38.139-10.298,0-44.99-2.071-51.755,0ZM494.726,253.368c-30.233,3.6-48.311,33.409-35.728,61.575,16.171,36.199,70.062,31.909,81.645-6.041,8.916-29.214-15.568-59.147-45.916-55.534ZM406.998,580.672h183.059c4.817,0-1.457-12.072-2.536-14.715-20.982-51.392-46.824-101.087-67.232-152.778-1.491-1.978-39.887-2.39-43.351.702l-69.94,166.791Z"/><path d="M535.426,164.727c-16.686-2.349-31.732-5.015-48.847-3.814-5.983.42-20.034,5.893-24.122,2.983l-5.755-55.703c5.073-35.244,78.68-34.454,82.601-1.985,2.13,17.635-4.164,40.412-3.877,58.519Z"/></svg>