<?xml version="1.0" encoding="UTF-8"?><svg id="a" xmlns="http://www.w3.org/2000/svg" viewBox="0 0 1000 1000"><path d="M795.923,500c0,163.434-132.489,295.923-295.923,295.923h0c-163.434,0-295.923-132.489-295.923-295.923h0c0-163.434,132.489-295.923,295.923-295.923h0c163.434,0,295.923,132.489,295.923,295.923h0Z" fill="#111114"/><path d="M587.677,477.044l-4.931,39.584c-.83,6.62-6.433,11.591-13.073,11.591h-64.12v165.521c-6.769.613-13.616.919-20.543.919-15.484,0-30.612-1.551-45.227-4.496v-161.944h-49.317c-4.526,0-8.221-3.715-8.221-8.251v-49.535c0-4.535,3.696-8.251,8.221-8.251h49.317v-74.297c0-45.592,36.808-82.548,82.212-82.548h57.539c4.526,0,8.221,3.715,8.221,8.251v49.535c0,4.536-3.696,8.251-8.221,8.251h-41.106c-18.152,0-32.875,14.782-32.875,33.023v57.786h69.05c7.925,0,14.051,6.976,13.073,14.861Z" fill="#fff"/></svg>