<?xml version="1.0" encoding="UTF-8"?><svg id="a" xmlns="http://www.w3.org/2000/svg" viewBox="0 0 1000 1000"><path d="M453.304,485.069c73.721-9.977,164.707,1.328,191.807,81.998,10.023,29.835,11.502,120.542,7.605,152.93-1.844,15.326-11.241,25.392-26.691,26.799-80.146,7.295-171.174-5.807-252.497.009-15.177-.455-24.879-9.08-26.684-24.259-4.07-34.216-2.838-128.322,9.089-159.091,15.014-38.731,55.558-72.727,97.371-78.386Z"/><path d="M696.759,740.788c-3.773-3.334-7.852-12.9-8.499-18.234-3.063-25.255-2.47-88.773.094-114.626,11.179-112.685,196.112-109.616,208.634-2.297,3.036,26.023,3.363,93.596.332,119.458-1.669,14.235-10.89,20.487-24.142,21.706-37.454,3.445-123.898,4.058-160.697-.054-4.764-.532-12.203-2.846-15.721-5.954Z"/><path d="M185.821,525.861c55.297-6.669,117.599,17.39,122.955,79.406,2.452,28.391,3.22,92.226-.033,119.822-1.659,14.073-10.694,20.472-24.142,21.706-50.959,4.676-108.952-3.776-160.698-.065-14.602-.899-20.468-13.6-21.73-26.664-2.843-29.424-2.634-107.355,6.559-133.745,10.993-31.556,43.923-56.461,77.088-60.461Z"/><path d="M491.558,250.872c84.433-8.126,139.928,89.138,89.319,157.986-61.575,83.765-197.497,30.49-178.79-76.822,7.514-43.106,46.168-76.996,89.471-81.164Z"/><path d="M779.443,347.581c89.062-12.868,115.508,115.271,33.228,140.143-100.808,30.473-129.927-126.172-33.228-140.143Z"/><path d="M198.5,347.58c79.015-10.327,114.092,93.152,46.856,133.379-33.78,20.21-82.297,7.748-100.208-27.909-21.673-43.147,4.418-99.075,53.352-105.47Z"/></svg>