<?xml version="1.0" encoding="UTF-8"?><svg id="a" xmlns="http://www.w3.org/2000/svg" viewBox="0 0 1000 1000"><path d="M795.923,500c0,163.434-132.489,295.923-295.923,295.923h0c-163.434,0-295.923-132.489-295.923-295.923h0c0-163.434,132.489-295.923,295.923-295.923h0c163.434,0,295.923,132.489,295.923,295.923h0Z" fill="#111114"/><path d="M580.287,344.776h-160.574c-41.375,0-74.935,33.56-74.935,74.935v160.574c0,41.375,33.56,74.935,74.935,74.935h160.574c41.375,0,74.935-33.56,74.935-74.935v-160.574c0-41.375-33.56-74.935-74.935-74.935ZM628.46,574.933c0,29.545-23.979,53.525-53.525,53.525h-149.869c-29.546,0-53.525-23.979-53.525-53.525v-149.869c0-29.546,23.979-53.525,53.525-53.525h149.869c29.546,0,53.525,23.979,53.525,53.525v149.869Z" fill="#fff"/><path d="M500.152,419.711c-44.319,0-80.287,35.969-80.287,80.287s35.969,80.287,80.287,80.287,80.287-35.969,80.287-80.287-35.969-80.287-80.287-80.287ZM500.152,553.523c-29.492,0-53.525-24.033-53.525-53.525s24.033-53.525,53.525-53.525,53.525,24.033,53.525,53.525-24.033,53.525-53.525,53.525Z" fill="#fff"/><path d="M585.791,430.416c-8.854,0-16.057-7.203-16.057-16.057s7.203-16.057,16.057-16.057,16.057,7.203,16.057,16.057-7.203,16.057-16.057,16.057Z" fill="#fff"/></svg>