<?xml version="1.0" encoding="UTF-8"?><svg id="a" xmlns="http://www.w3.org/2000/svg" viewBox="0 0 1000 1000"><path d="M87.877,625.512c.824-2.934,7.151-5.811,10.423-4.882l407.825,63.93c10.952,1.245,14.098,4.864,15.052,15.617-.156,16.265,9.111,113.568-8.822,116.096-.003,0-413.501-73.31-413.501-73.31-3.538-.007-10.978-7.599-10.978-10.108v-107.344Z"/><path d="M912.123,281.437v110.219l-357.518,414.991-4.767-2.869v-122.678c119.964-133.276,234.474-274.645,362.285-399.663Z"/><path d="M908.002,228.027l1.721,6.162c-3.955,1.785-376.303,422.357-381.955,420.98-7.82,1.526-57.382-5.451-66.568-8.109-5.262-1.523-8.615-3.051-6.248-9.009,3.031-7.627,18.642-29.341,24.317-37.104,43.19-59.08,117.408-92.026,148.926-155.853,32.315-129.498,106.298-150.183,203.371-224.106l76.435,7.038Z"/><path d="M664.291,201.339l114.602,11.1,4.787,4.749c-85.872,64.202-153.052,96.3-179.831,209.309-22.109,48.384-59.218,66.089-96.209,99.312-36.527,32.806-61.922,69.841-88.998,110.348-3.476,2.702-7.566,1.971-11.556,1.819-17.18-.654-51.196-6.342-68.564-10.085-7.219-1.556-11.135-2.284-6.889-9.726,45.399-79.584,145.331-125.01,180.763-208.361,9.517-22.389,12.622-46.461,21.761-68.331,24.174-51.1,86.222-104.738,130.134-140.134Z"/><path d="M618.847,195.198c.836,10.045-17.288,21.013-23.911,28.785-29.289,28.354-69.845,69.689-105.156,88.446-38.912,20.67-67.921,29.2-102.901,60.031-45.831,40.393-66.745,94.82-113.04,138.067-28.735,26.843-62,54.837-92.157,80.412-2.227,1.888-3.174,5.773-5.042,6.891-10.302,6.169-63.93-7.339-78.37-9.547l-.495-6.477c3.954-1.791,401.679-398.983,407.044-398.074.01-.005,114.028,11.466,114.028,11.466Z"/><path d="M488.06,346.941c7.432-1.865,11.646,4.89,9.606,11.592-9.478,79.142-91.561,125.788-140.497,179.736-22.592,24.905-41.2,53.261-63.127,78.713-11.589,6.089-70.115-6.882-78.773-9.597-3.258-4.508,3.056-8.935,5.788-11.626,38.894-38.3,85.039-67.81,117.574-112.448,40.567-59.894,75.537-112.011,149.43-136.37Z"/></svg>