<?xml version="1.0" encoding="UTF-8"?><svg id="a" xmlns="http://www.w3.org/2000/svg" viewBox="0 0 1000 1000"><path d="M649.302,439.032l134.351-.386c9.547,1.174,14.567,9.262,18.639,17.021l.683,320.266c-1.349,11.306-6.905,19.476-17.83,22.922-40.237-1.626-92.085,6.445-131.054.976-12.717-1.785-18.672-8.653-23.24-20.062l-1.255-314.598c1.031-10.177,9.332-23.816,19.706-26.14Z"/><path d="M728.288,371.528c-19.615,15.775-46.588-21.975-61.688-32.297-91.126,97.423-206.521,172.091-333.687,213.94-15.369,5.058-79.566,24.314-91.164,22.347-19.964-3.386-25.693-29.262-10.516-42.479,37.847-12.52,76.478-22.076,113.68-36.624,106.064-41.477,201.408-109.738,277.05-194.145,0-5.515-40.219-31.757-43.905-40.103-4.891-11.073-.006-21.919,10.772-26.157,41.792-16.43,99.415-21.628,142.64-38.3,12.372-.934,19.009,5.991,20.045,17.923-9.109,47.376-8.153,97.919-17.541,145.066-.545,2.738-3.695,9.227-5.686,10.828Z"/><path d="M435.325,561.304c18.994-3.837,108.245-3.143,129.414-.646,12.12,1.429,20.227,9.531,21.658,21.643,4.982,42.196.115,105.802-.18,150.385-.034,5.182,2.481,9.862,2.418,14.906-.088,7.069-1.52,29.442-2.842,35.374-2.258,10.128-14.228,16.035-23.6,17.156-25.07,2.999-97.355,3.004-122.419,0-20.438-2.449-25.216-15.954-26.786-34.342-4.678-54.808-1.819-118.641-.01-173.114.441-13.279,8.248-28.514,22.347-31.362Z"/><path d="M218.698,640.187c40.738,2.503,89.716-5.204,129.462-.593,10.719,1.244,17.08,7.607,20.825,17.383,5.577,14.559,5.34,95.111,3.334,113.812-1.532,14.275-8.518,27.5-24.155,29.332-27.655,3.24-94.188,2.676-122.48.063-15.937-1.472-24.807-10.772-26.631-26.858-2.591-22.857-2.793-84.346-.061-106.998,1.228-10.179,9.128-23.77,19.706-26.14Z"/></svg>