<?xml version="1.0" encoding="UTF-8"?><svg id="a" xmlns="http://www.w3.org/2000/svg" viewBox="0 0 1000 1000"><path d="M795.923,500c0,163.434-132.489,295.923-295.923,295.923h0c-163.434,0-295.923-132.489-295.923-295.923h0c0-163.434,132.489-295.923,295.923-295.923h0c163.434,0,295.923,132.489,295.923,295.923h0Z" fill="#111114"/><path d="M429.008,682.084c5.763-5.384,29.801-30.256,42.465-81.821l9.555-39.204c8.948,9.327,21.384,15.545,34.503,18.73,53.006,13.043,104.343-43.603,117.689-98.049,18.73-76.21-20.171-143.472-84.627-159.244-74.238-18.199-161.823,18.048-183.207,105.177-7.507,30.636-5.005,76.968,36.55,99.035,4.247,2.275,9.479-.076,10.616-4.777l5.839-23.583c.607-2.73-.455-5.536-2.578-7.431-14.787-13.422-18.199-35.337-13.195-55.887,14.484-58.92,75.072-83.11,126.637-70.447,44.74,10.995,71.963,56.645,59.3,108.21-9.024,36.854-34.579,77.423-71.432,68.399-22.067-5.384-24.569-26.996-18.578-51.413l13.498-55.205c3.488-14.256-5.232-28.664-19.413-32.152-14.256-3.488-36.778,6.597-43.982,36.095-4.247,17.214-.758,31.015,5.763,40.114l-27.147,110.789c-12.512,51.034-3.033,84.02-.227,91.907" fill="#fff"/></svg>