<?xml version="1.0" encoding="UTF-8"?><svg id="a" xmlns="http://www.w3.org/2000/svg" viewBox="0 0 1000 1000" fill="#fff"><path d="M236.825,534.999c-14.033,5.403-71.657,52.366-80.968,52.242-6.519-.087-10.346-16.797-11.84-22.559C67.609,240.881,479.77-20.907,727.135,217.404c14.655-7.255,34.137-42.782,46.248-49.649,12.236-6.327,20.858.031,23.57,12.349,12.463,56.603,13.408,121.247,26.832,178.423.77,11.121-8.475,22.133-19.88,21.818,0,0-185.545-21.648-185.545-21.648-7.808-3.722-9.269-14.2-5.027-21.319,0,0,45.688-44.454,45.688-44.454-157.013-147.874-438.48-1.167-421.716,211.086-.062,9.976,5.496,21.243-.48,30.988Z"/><path d="M182.458,618.626c3.591-3.509,10.311-5.567,15.285-5.695,57.331,10.102,119.566,10.637,176.471,20.582,50.493,9.311-27.24,57.299-33.243,75.291,183.745,161.634,453.198-17.717,419.547-246.729,2.247.34,84.429-60.287,87.131-52.868,103.553,328.368-317.062,619.895-575.142,373.867-5.502-.466-35.012,40.846-43.644,45.834-10.153,5.866-21.297.028-23.603-11.107-4.548-57.922-22.465-118.865-27.049-176.126-.619-7.739-1.822-17.12,4.247-23.05Z"/></svg>