<?xml version="1.0" encoding="UTF-8"?><svg id="a" xmlns="http://www.w3.org/2000/svg" viewBox="0 0 1000 1000" fill="#fff"><path d="M234.465,212.482c-18.401-5.66-9.99-54.603-10.619-70.039.823-8.897,2.514-16.451,12.65-18.022,0,0,525.195-.206,525.195-.206,4.223-.326,11.514,1.996,13.33,5.838,1.821,3.852,1.863,64.193.775,71.777-.694,4.835-5.945,10.652-10.363,10.652h-37.379c7.12,125.992-66.577,180.905-148.586,256.829-70.152,74.714,168.196,105.867,152.42,318.226h35.462c2.489,0,7.962,5.462,8.588,8.663,2.007,10.249,1.298,55.419.038,67.085-1.111,10.288-6.44,11.385-16.196,12.53l-521.305-.278c-9.003-1.256-13.533-4.922-14.595-14.158-1.432-12.454-1.502-47.08.219-59.289.68-4.826,5.059-14.552,10.367-14.552h33.545c-4.469-197.296,135.964-203.27,163.019-290.342-.89-26.769-60.909-68.029-80.621-86.292-57.068-52.871-89.215-118.977-86.232-198.421-8.732-1.24-21.649,1.704-29.711,0ZM674.382,214.399h-354.617c-17.454,167.075,203.025,184.265,160.041,316.256-51.111,96.271-160.757,109.489-158.115,251.137,51.776-12.403,104.066-73.573,155.475-94.669,12.429-5.525,22.982-7.638,36.289-4.127,0,0,162.834,93.031,162.834,93.031,6.722-142.249-126.91-156.731-163.581-259.068-19.54-125.133,172.706-135.399,161.674-302.56Z"/></svg>