<?xml version="1.0" encoding="UTF-8"?><svg id="a" xmlns="http://www.w3.org/2000/svg" viewBox="0 0 1000 1000"><path d="M498.834,785.086c-4.527-3.887-5.752-8.229-6.421-13.953-7.613-65.156,5.92-144.544-.099-211.24-1.889-10.427-8.622-15.567-18.903-16.757-29.229-3.384-111.086-3.438-140.241.008-13.153,1.555-15.488,6.576-16.632,19.027-5.945,64.69,5.217,138.56.214,203.905-.309,4.04-1.227,14.517-4.276,16.689l-160.104,2.262c-8.134-1.164-9.972-9.919-11.293-16.723,6.649-111.035-9.648-233.955-.32-343.602,2.043-24.02,12.779-27.515,29.453-41.862,81.329-69.98,169.834-132.127,251.03-202.372,8.583-5.872,21.682-5.907,30.335,0l268.89,209.987c8.585,6.312,9.928,15.32,8.969,25.432-101.116-3.721-181.3,88.046-173.233,187.101,5.113,62.785,58.604,121.846,86.631,175.848l-3.861,6.249h-140.137Z"/><path d="M716.161,452.277c92.372-9.398,164.242,80.864,141.952,169.867-8.975,35.838-85.877,157.721-111.296,189.236-10.817,13.411-19.846,18.052-33.8,4.106-51.087-93.054-177.985-211.17-84.27-318.16,21.345-24.369,55.081-41.76,87.413-45.05ZM726.328,536.075c-46.394,3.605-69.175,62.13-28.739,91.128,42.682,30.608,98.835-13.253,77.038-61.708-7.652-17.012-29.48-30.882-48.299-29.42Z"/></svg>