<?xml version="1.0" encoding="UTF-8"?><svg id="a" xmlns="http://www.w3.org/2000/svg" viewBox="0 0 1000 1000"><path d="M795.923,500c0,163.434-132.489,295.923-295.923,295.923h0c-163.434,0-295.923-132.489-295.923-295.923h0c0-163.434,132.489-295.923,295.923-295.923h0c163.434,0,295.923,132.489,295.923,295.923h0Z" fill="#111114"/><path d="M558.652,576.248v-146.63s16.53,27.551,76.295,29.245c3.185.09,5.817-2.529,5.817-5.715v-41.444c0-3.088-2.461-5.526-5.544-5.701-46.354-2.627-68.369-38.172-70.527-70.776-.2-3.026-2.838-5.317-5.871-5.317h-47.255c-3.15,0-5.703,2.553-5.703,5.703v233.092c0,25.321-19.348,47.348-44.641,48.545-28.912,1.369-52.416-23.443-48.842-52.765,2.525-20.716,19.152-37.676,39.822-40.553,4.104-.571,8.125-.611,12.003-.178,3.435.383,6.467-2.174,6.467-5.63v-41.544c0-2.956-2.249-5.504-5.198-5.695-5.932-.384-12.006-.248-18.176.45-45.592,5.164-82.382,42.059-87.433,87.664-6.663,60.164,40.259,111.092,99.076,111.092,55.067,0,99.708-44.641,99.708-99.708" fill="#fff"/></svg>